<?xml version="1.0" encoding="utf-8"?>
<!-- Generator: Adobe Illustrator 21.0.0, SVG Export Plug-In . SVG Version: 6.00 Build 0)  -->
<svg version="1.1" id="Layer_1" xmlns="http://www.w3.org/2000/svg" xmlns:xlink="http://www.w3.org/1999/xlink" x="0px" y="0px"
	 viewBox="0 0 595.3 841.9" style="enable-background:new 0 0 595.3 841.9;" xml:space="preserve">
<style type="text/css">
	.st0{fill:#303C7A;}
</style>
<path class="st0" d="M471.1,489.7c-7.6-3.3-15-6.7-22.5-9.8c-29.1-12.2-59.3-21-90.3-26.6c-30.2-5.5-60.7-8-91.5-7.8
	c-22.6,0.1-45.1,1.7-67.5,4.5c-36.8,4.6-72.9,12.5-108.5,22.9c-0.5,0.1-1,0.5-1.8,0.2c3.6-2.2,7-4.4,10.5-6.5
	c47-28.5,97.4-48.3,151.2-59.5c19-4,38.2-6.6,57.6-8.2c20.6-1.6,41.1-1.8,61.7-0.6c16.1,1,32.2,3,48.1,5.7c1.9,0.3,2.6,1.5,3.5,2.9
	c16.1,26.9,32.1,53.7,48.2,80.6C470.3,488.2,470.7,488.9,471.1,489.7z"/>
<path class="st0" d="M389,348.6c-8.4,0-16.8-0.1-25.1,0c-17.9,0.3-35.7,1.4-53.5,3.3c-35.2,3.9-69.6,11.9-103.1,23.3
	c-26.2,8.9-51.8,19.5-76.8,31.2c-0.6,0.3-1.2,0.5-1.8,0.8c0-0.7,0.6-0.9,0.9-1.2c43.1-37.3,90.1-68.5,142.1-92.1
	c25.6-11.6,51.9-21.2,78.9-28.6c1.2-0.3,1.7-0.1,2.3,0.9c11.8,20,23.6,40,35.4,60C388.6,346.8,389,347.3,389,348.6z"/>
<path class="st0" d="M286.2,170.4c12.7,21.4,25.3,42.4,37.9,63.7c-52.7,22.3-98.5,55-140.8,92.9c-0.1-0.1-0.2-0.3-0.4-0.4
	C217.4,274.7,251.7,222.7,286.2,170.4z"/>
<path class="st0" d="M346.8,542.7c2.6-9.1,5.1-18.1,7.7-27.2c1.1-3.8,1.1-3.8,4.9-3.8c3.3,0,6.6,0,10,0c1.1,0,1.5,0.3,1.4,1.4
	c0,14.4,0,28.9,0,43.3c0,1.1-0.4,1.5-1.4,1.4c-2-0.1-4-0.1-6,0c-1.5,0.1-2-0.3-2-1.9c0.1-11.1,0-22.2-0.2-33.4
	c-0.5,1.8-1,3.5-1.5,5.3c-2.6,9.4-5.1,18.8-7.6,28.3c-0.4,1.3-0.9,1.9-2.3,1.8c-2.1-0.1-4.2-0.1-6.3,0c-1.3,0.1-1.7-0.4-2.1-1.6
	c-2.8-10.5-5.6-20.9-8.5-31.4c-0.2-0.6-0.3-1.1-0.5-1.8c-0.5,0.7-0.3,1.3-0.3,1.9c0,10.4-0.1,20.8,0,31.1c0,1.4-0.4,1.9-1.8,1.8
	c-1.9-0.1-3.9-0.1-5.8,0c-1.4,0.1-1.8-0.4-1.8-1.8c0.1-13.1,0-26.2,0-39.3c0-1.3,0-2.5,0-3.8c0-1,0.3-1.2,1.3-1.2
	c4.2,0,8.5,0.1,12.7,0c1.3,0,1.4,0.8,1.7,1.6c2.6,9,5.1,18,7.7,26.9C346.1,541,346.1,541.9,346.8,542.7z"/>
<path class="st0" d="M190.9,529.3c-0.1,4.5,0.1,9.8-0.3,15.2c-0.6,8.4-5.9,12.4-13.2,13.7c-4.1,0.7-8.3,0.7-12.4,0
	c-8.7-1.5-13-6.2-13.5-15.4c-0.5-9.9-0.1-19.9-0.2-29.9c0-1,0.5-1.2,1.3-1.2c2.4,0,4.8,0.1,7.2,0c1.3-0.1,1.6,0.4,1.6,1.7
	c0,8,0,16.1,0,24.1c0,1.9,0.1,3.7,0.1,5.6c0.1,1.2,0.4,2.4,1,3.4c2.9,5.1,13.1,5.8,16.7,1.2c1.2-1.6,1.4-3.4,1.5-5.3
	c0.1-9.5,0.2-19,0.1-28.4c0-1.9,0.6-2.4,2.3-2.2c2.1,0.1,4.2,0.1,6.3,0c1.2,0,1.6,0.3,1.5,1.5C190.9,518.3,190.9,523.4,190.9,529.3z
	"/>
<path class="st0" d="M459.2,511.7c6,0,12.1,0,18.1,0c1.3,0,2,0.2,1.8,1.7c-0.1,1.6-0.1,3.1,0,4.7c0.1,1.1-0.3,1.4-1.4,1.4
	c-3.9-0.1-7.8,0-11.8-0.1c-1.4,0-1.7,0.4-1.7,1.7c0.1,11.6,0,23.2,0.1,34.8c0,1.4-0.3,1.9-1.8,1.8c-2.2-0.1-4.3-0.1-6.5,0
	c-1.5,0.1-1.9-0.4-1.9-1.9c0.1-11.5,0-22.9,0.1-34.4c0-1.7-0.5-2.1-2.1-2c-3.7,0.1-7.4,0-11,0.1c-1.5,0-1.9-0.5-1.8-1.8
	c0.1-1.5,0.1-3,0-4.5c-0.1-1.2,0.4-1.5,1.5-1.5C447,511.8,453.1,511.7,459.2,511.7z"/>
<path class="st0" d="M226.4,511.7c6,0,12.1,0,18.1,0c1.4,0,1.8,0.4,1.7,1.7c-0.1,1.5-0.1,3,0,4.5c0.1,1.2-0.3,1.7-1.6,1.6
	c-3.9-0.1-7.7,0-11.6-0.1c-1.4,0-1.7,0.4-1.7,1.7c0.1,11.5,0,23.1,0.1,34.6c0,1.5-0.2,2.2-1.9,2c-2.1-0.2-4.2-0.1-6.3,0
	c-1.5,0.1-1.9-0.3-1.9-1.9c0.1-11.5,0-23.1,0.1-34.6c0-1.5-0.4-1.9-1.9-1.9c-3.9,0.1-7.7,0-11.6,0.1c-1.1,0-1.5-0.3-1.4-1.4
	c0.1-1.6,0.1-3.1,0-4.7c-0.1-1.3,0.3-1.8,1.7-1.7C214.2,511.8,220.3,511.7,226.4,511.7z"/>
<path class="st0" d="M306.3,532.5c-0.5-10.5-6.8-18.3-16.8-20.7c-4.1-1-8.2-1.1-12.4-0.5c-9,1.3-15.1,6.2-18.1,14.8
	c-1.2,3.6-1.4,7.5-1.1,11.3c0.5,7.4,3.3,13.7,9.9,17.5c9,5.2,18.5,5.3,27.7,0.6c8.2-4.2,10.9-11.8,10.9-20.6
	C306.3,534.1,306.3,533.3,306.3,532.5z M295.9,534.7c0.1,2.1-0.1,4.2-0.7,6.3c-1.6,5.9-6.4,9.6-12.6,9.7c-6.5,0.1-11.6-3.3-13.4-9.2
	c-1.4-4.5-1.4-9.1,0-13.6c1.8-6,7.1-9.4,14-9c6.4,0.3,11,4.3,12.2,10.4C295.8,531,295.9,532.8,295.9,534.7z"/>
<path class="st0" d="M136.8,556.3c-6.3-14.5-12.6-28.9-18.9-43.4c-0.4-0.9-0.9-1.2-1.9-1.2c-2.6,0.1-5.2,0.1-7.8,0
	c-1.3-0.1-1.8,0.5-2.2,1.6c-1.7,4.2-3.5,8.3-5.2,12.5c-4.3,10.2-8.5,20.3-12.9,30.4c-0.6,1.5-0.3,1.7,1.1,1.6c2.5-0.1,5.1-0.1,7.6,0
	c1,0,1.5-0.3,1.8-1.3c1-2.7,2.2-5.4,3.2-8.1c0.3-0.9,0.8-1.2,1.7-1.2c3,0.1,5.9,0,8.9,0c2.8,0,5.6,0.1,8.3,0
	c1.3-0.1,1.9,0.4,2.3,1.6c0.9,2.5,2.1,5,3.1,7.5c0.4,1,0.9,1.4,2,1.4c2.7-0.1,5.3-0.1,8,0C137.2,557.9,137.3,557.5,136.8,556.3z
	 M106.7,539.5c-0.4,0-0.8,0-1.5-0.1c2.2-5.6,4.4-11.1,6.7-16.9c2.4,5.9,4.6,11.4,6.9,17C114.6,539.5,110.6,539.5,106.7,539.5z"/>
<path class="st0" d="M433.7,556.3c-6.3-14.4-12.6-28.8-18.8-43.2c-0.5-1-1-1.4-2.1-1.4c-2.6,0.1-5.2,0.1-7.8,0c-1.1,0-1.6,0.4-2,1.4
	c-1.9,4.7-4,9.4-5.9,14.2c-4.1,9.7-8.2,19.4-12.3,29.1c-0.5,1.2-0.3,1.5,1,1.5c2.6-0.1,5.2-0.1,7.8,0c1,0,1.5-0.3,1.9-1.2
	c1-2.7,2.1-5.3,3.1-7.9c0.4-1,0.9-1.4,2-1.4c2.9,0.1,5.8,0,8.7,0c2.8,0,5.7,0.1,8.5,0c1.2,0,1.7,0.4,2.1,1.4c1,2.6,2.1,5.1,3.1,7.7
	c0.4,1,0.8,1.4,1.9,1.4c2.7-0.1,5.3-0.1,8,0C434.1,557.9,434.3,557.5,433.7,556.3z M402.2,539.4c2.2-5.6,4.4-11,6.7-17
	c2.4,5.9,4.6,11.4,6.9,17C411.2,539.4,406.8,539.4,402.2,539.4z"/>
<path class="st0" d="M506.2,454.9c-14.2,0-25.5,11.3-25.6,25.3c0,14,11.4,25.5,25.4,25.6c14.1,0,25.5-11.2,25.5-25.4
	C531.5,466.1,520.4,454.9,506.2,454.9z M506.3,501.6c-11.7,0.1-21.5-9.6-21.5-21.3c0-11.6,9.6-21.2,21.1-21.3
	c11.8-0.1,21.5,9.5,21.5,21.3C527.4,491.9,517.9,501.5,506.3,501.6z"/>
<path class="st0" d="M509.1,482.3c0.4-0.2,0.7-0.3,1-0.4c4.6-1.8,6.5-4.7,5.9-8.7c-0.6-3.7-3.5-5.9-8.2-6.1c-3.5-0.1-7,0-10.5-0.1
	c-2.1-0.1-2.4,0.8-2.3,2.6c0.1,7.5,0.1,14.9,0,22.4c0,1.6,0.2,2.4,2.2,2.4c2,0,2.5-0.8,2.4-2.6c-0.1-1.9,0.2-3.9-0.1-5.8
	c-0.6-3.6,1.5-3.6,3.9-3.2c1.7,0.2,2.9,1.2,3.8,2.6c1.2,1.8,2.6,3.5,3.4,5.5c1.4,3.3,3.6,4.2,7.2,3.1
	C515,489.9,512.9,485.5,509.1,482.3z M503.8,479c-1.5-0.4-3.7,0.7-4.1-0.7c-0.6-2.2-0.2-4.7-0.1-7c0-0.2,0.2-0.4,0.4-0.5
	c1.5-1.1,9.5,0.2,10.6,1.6c1.7,2.2,0.7,5.4-2.2,6.1C506.9,478.9,505.3,478.9,503.8,479z"/>
</svg>
