<?xml version="1.0" encoding="utf-8"?>
<!-- Generator: Adobe Illustrator 16.0.4, SVG Export Plug-In . SVG Version: 6.00 Build 0)  -->
<!DOCTYPE svg PUBLIC "-//W3C//DTD SVG 1.1//EN" "http://www.w3.org/Graphics/SVG/1.1/DTD/svg11.dtd">
<svg version="1.1" id="Ebene_1" xmlns="http://www.w3.org/2000/svg" xmlns:xlink="http://www.w3.org/1999/xlink" x="0px" y="0px"
	 width="871px" height="411.024px" viewBox="0 0 871 411.024" enable-background="new 0 0 871 411.024" xml:space="preserve">
<g>
	<rect x="13.019" y="48.889" fill="#FFEB00" width="258.33" height="270.193"/>
	<g>
		<path fill="#00785A" d="M13.019,89.674V45.276H287.71v274.691h-72.132c29.906-39.5,54.529-93.454,48.888-139.693
			c-5.508-45.196-31.488-78.447-76.743-87.971c-28.95-6.092-59.14,22.878-78.898,23.212c-2.827-16.59-9.024-45.067-21.108-55.587
			L56.09,67.495c0,0,29.472,11.02,35.937,48.021C72.257,115.182,41.968,83.583,13.019,89.674"/>
		<path fill="#CD003C" d="M13.097,167.885c15.586,6.946,29.894,16.108,40.955,16.296c-6.454-36.941-35.877-47.942-35.877-47.942
			l31.577-7.559c12.064,10.509,18.251,38.94,21.066,55.5c19.731-0.335,49.872-29.257,78.774-23.165
			c45.187,9.507,71.125,42.698,76.624,87.824c2.746,22.526-1.799,47.185-10.657,71.115l-202.542,0.012L13.097,167.885z"/>
	</g>
	<g>
		<g>
			<path fill="#00785A" d="M360.375,104.053h43.19v46.173h-5.188v-22.827h-0.259c-7.004,16.602-22.698,24.902-40.466,24.902
				c-28.145,0-49.286-17.769-49.286-48.378c0-22.438,15.305-48.378,49.286-48.378c22.698,0,39.429,11.154,43.968,31.128h-5.966
				c-3.892-17.12-19.455-25.94-38.002-25.94c-26.458,0-43.32,19.844-43.32,43.19c0,23.216,14.916,43.19,43.32,43.19
				c23.346,0,38.521-14.397,39.948-37.873h-37.224V104.053z"/>
			<path fill="#00785A" d="M419.128,57.62h47.341c17.769,0,31.257,5.058,31.257,24.513c0,9.598-5.836,19.974-18.936,22.957v0.26
				c11.283,1.426,17.25,9.208,17.38,19.195c0.259,16.862,0.777,22.309,2.595,25.681h-5.967c-1.686-1.557-2.206-7.393-2.595-21.531
				c-0.389-16.083-5.576-20.622-23.865-20.622h-41.244v42.153h-5.966V57.62z M425.094,102.885h40.337c5.837,0,26.33,0,26.33-21.141
				c0-15.045-11.674-18.936-24.773-18.936h-41.894V102.885z"/>
			<path fill="#00785A" d="M507.064,57.62h5.966v58.105c0,19.844,9.338,31.388,35.02,31.388c25.681,0,35.019-11.543,35.019-31.388
				V57.62h5.967v58.365c0,23.865-13.749,36.316-40.985,36.316c-27.238,0-40.985-12.452-40.985-36.316V57.62z"/>
			<path fill="#00785A" d="M603.82,57.62h49.935c17.769,0,26.977,8.301,26.977,22.828c0,9.079-4.149,18.287-18.157,21.271v0.259
				c18.028,1.815,21.27,14.916,21.27,22.828c0,9.986-5.446,25.421-30.997,25.421H603.82V57.62z M609.785,99.643h41.245
				c4.799,0,23.735,0,23.735-18.806c0-18.028-14.786-18.028-24.644-18.028h-40.337V99.643z M609.785,145.038h41.764
				c4.67,0,26.33,0,26.33-20.752c0-19.455-17.641-19.455-27.886-19.455h-40.208V145.038z"/>
			<path fill="#00785A" d="M697.462,57.62h73.15v5.188h-67.185v36.834h64.462v5.188h-64.462v40.207h67.963v5.188h-73.929V57.62z"/>
			<path fill="#00785A" d="M781.508,57.62h47.34c17.77,0,31.258,5.058,31.258,24.513c0,9.598-5.836,19.974-18.937,22.957v0.26
				c11.284,1.426,17.25,9.208,17.38,19.195c0.26,16.862,0.778,22.309,2.594,25.681h-5.966c-1.687-1.557-2.205-7.393-2.595-21.531
				c-0.389-16.083-5.576-20.622-23.864-20.622h-41.245v42.153h-5.965V57.62z M787.473,102.885h40.337
				c5.837,0,26.329,0,26.329-21.141c0-15.045-11.673-18.936-24.772-18.936h-41.894V102.885z"/>
		</g>
		<g>
			<path fill="#00785A" d="M360.375,252.041h43.19v46.173h-5.188v-22.827h-0.259c-7.004,16.603-22.698,24.903-40.466,24.903
				c-28.145,0-49.286-17.77-49.286-48.378c0-22.438,15.305-48.379,49.286-48.379c22.698,0,39.429,11.154,43.968,31.128h-5.966
				c-3.892-17.121-19.455-25.94-38.002-25.94c-26.458,0-43.32,19.845-43.32,43.191c0,23.215,14.916,43.189,43.32,43.189
				c23.346,0,38.521-14.397,39.948-37.873h-37.224V252.041z"/>
			<path fill="#00785A" d="M419.128,205.608h73.151v5.188h-67.186v36.835h64.461v5.188h-64.461v40.207h67.964v5.188h-73.93V205.608z
				"/>
			<path fill="#00785A" d="M505.767,205.608h7.522l69.131,84.305h0.259v-84.305h5.967v92.605h-7.522l-69.131-84.305h-0.26v84.305
				h-5.966V205.608z"/>
			<path fill="#00785A" d="M604.207,205.608h73.151v5.188h-67.186v36.835h64.462v5.188h-64.462v40.207h67.964v5.188h-73.93V205.608z
				"/>
			<path fill="#00785A" d="M681.119,205.608h80.674v5.188h-37.354v87.418h-5.965v-87.418h-37.354V205.608z"/>
			<path fill="#00785A" d="M765.684,205.608h80.674v5.188h-37.354v87.418h-5.966v-87.418h-37.354V205.608z"/>
			<path fill="#00785A" d="M854.787,205.608h5.965v92.605h-5.965V205.608z"/>
		</g>
	</g>
	<g>
		<path fill="#00785A" d="M845.893,375.226l-1.233,3.088c-1.396,3.46-3.452,4.387-6.491,4.387c-1.068,0-2.137-0.062-3.204-0.124
			v3.089c0.985,0.062,1.972,0.124,3.286,0.124c6.655,0,9.285-1.792,11.586-8.217l12.736-35.461h-5.26l-8.792,28.418h-0.163
			l-9.778-28.418h-5.26L845.893,375.226z M812.688,374.917h4.931v-20.513c0-6.363,5.094-9.328,10.518-9.328
			c0.739,0,1.562,0.062,2.383,0.186v-3.707c-0.575-0.123-1.151-0.186-1.726-0.186c-5.095,0-9.121,2.224-11.012,5.869h-0.163v-5.127
			h-4.931V374.917z M781.925,355.58c0.164-8.155,3.205-11.12,9.285-11.12s9.122,2.965,9.285,11.12H781.925z M800.413,364.042
			c-0.822,5.746-4.027,8.526-9.203,8.526c-4.848,0-9.285-2.903-9.285-12.356v-1.545h23.829v-1.358
			c0-10.936-4.355-15.939-14.051-15.939c-9.614,0-15.037,5.747-15.037,17.113c0,12.355,5.423,17.175,14.627,17.175
			c8.217,0,13.311-4.633,14.049-11.615H800.413z M760.842,360.646c4.354,1.297,5.916,3.15,5.916,6.054
			c0,3.646-3.369,5.869-8.628,5.869c-5.587,0-8.382-2.472-8.382-7.29v-0.864h-4.928v1.049c0,7.414,4.436,10.194,13.393,10.194
			c9.201,0,13.475-4.14,13.475-9.761c0-3.584-2.218-6.673-8.135-8.341l-7.147-2.039c-4.931-1.42-5.917-3.213-5.917-5.497
			c0-3.275,2.22-5.561,7.971-5.561c4.52,0,7.149,1.792,7.149,6.054v0.927h4.93v-0.927c0-5.992-3.78-9.144-11.998-9.144
			c-7.395,0-12.981,2.719-12.981,9.453c0,3.274,2.219,5.993,8.381,7.784L760.842,360.646z M724.188,374.917h4.929v-20.513
			c0-6.363,5.095-9.328,10.519-9.328c0.739,0,1.561,0.062,2.382,0.186v-3.707c-0.574-0.123-1.149-0.186-1.726-0.186
			c-5.095,0-9.12,2.224-11.009,5.869h-0.166v-5.127h-4.929V374.917z M688.709,366.885c0,6.178,4.519,8.772,11.175,8.772
			c4.436,0,8.708-1.668,11.174-5.312h0.165v4.572h4.437v-32.806h-4.931v22.055c0,5.066-3.943,8.402-9.53,8.402
			c-5.177,0-7.56-2.039-7.56-7.351v-23.106h-4.93V366.885z M644.354,374.917h5.261V336.49h0.164l22.432,38.428h7.066v-44.111h-5.26
			v38.427h-0.164l-22.432-38.427h-7.067V374.917z M608.338,375.782h5.155v-45.841h-5.155V375.782z M554.797,358.483
			c0-10.441,4.272-14.023,9.778-14.023c5.505,0,9.777,3.582,9.777,14.023c0,10.503-4.272,14.086-9.777,14.086
			C559.069,372.569,554.797,368.986,554.797,358.483 M549.538,358.483c0,11.43,5.423,17.175,15.037,17.175
			c9.612,0,15.035-5.745,15.035-17.175c0-11.366-5.423-17.113-15.035-17.113C554.961,341.37,549.538,347.117,549.538,358.483
			 M537.78,337.106h4.931v-6.301h-4.931V337.106z M537.78,374.917h4.931v-32.806h-4.931V374.917z M523.229,363.302
			c0,5.868-4.108,9.267-10.106,9.267c-4.272,0-6.902-2.595-6.902-6.426c0-3.892,2.547-5.807,7.477-6.795l4.109-0.804
			c1.972-0.37,4.765-1.05,5.258-2.161h0.165V363.302z M507.288,351.872c0-4.755,2.548-7.412,8.382-7.412
			c4.437,0,7.56,1.481,7.56,5.684c0,3.83-0.74,4.448-4.19,5.188l-9.285,1.978c-6.162,1.298-8.791,4.758-8.791,9.082
			c0,5.684,3.45,9.267,11.092,9.267c4.848,0,9.285-1.235,11.257-5.561h0.164v1.112c0,3.397,2.466,4.077,6.327,4.077
			c0.656,0,1.396-0.123,2.301-0.369v-2.719h-1.396c-1.727,0-2.548-0.865-2.548-2.72v-19.398c0-5.188-3.287-8.711-12.325-8.711
			c-9.202,0-13.475,3.769-13.475,10.502H507.288z M481.728,374.917h5.587l11.503-32.806h-5.259l-8.874,28.604h-0.164l-9.695-28.604
			h-5.259L481.728,374.917z M459.452,337.106h4.931v-6.301h-4.931V337.106z M459.452,374.917h4.931v-32.806h-4.931V374.917z
			 M431.483,374.917h6.573l15.447-44.111h-5.587l-13.064,39.909h-0.164l-13.065-39.909h-5.587L431.483,374.917z M384.373,375.782
			h5.156v-45.841h-5.156V375.782z M331.325,355.58c0.166-8.155,3.205-11.12,9.286-11.12c6.08,0,9.12,2.965,9.285,11.12H331.325z
			 M349.813,364.042c-0.822,5.746-4.026,8.526-9.203,8.526c-4.848,0-9.286-2.903-9.286-12.356v-1.545h23.829v-1.358
			c0-10.936-4.355-15.939-14.051-15.939c-9.613,0-15.037,5.747-15.037,17.113c0,12.355,5.424,17.175,14.626,17.175
			c8.216,0,13.311-4.633,14.051-11.615H349.813z M313.964,374.917h4.93v-44.111h-4.93V374.917z M278.321,366.885
			c0,6.178,4.52,8.772,11.175,8.772c4.437,0,8.71-1.668,11.175-5.312h0.164v4.572h4.437v-32.806h-4.931v22.055
			c0,5.066-3.944,8.402-9.531,8.402c-5.176,0-7.56-2.039-7.56-7.351v-23.106h-4.93V366.885z M242.941,374.917h4.929v-22.057
			c0-5.065,3.862-8.401,9.614-8.401c5.012,0,7.478,2.225,7.478,6.733v23.725h4.93v-24.774c0-6.178-4.52-8.773-11.175-8.773
			c-5.177,0-9.45,1.978-10.682,5.314h-0.165v-15.878h-4.929V374.917z M231.685,364.042c-0.822,5.746-4.026,8.526-9.039,8.526
			c-4.602,0-9.285-1.668-9.285-14.024c0-11.615,4.437-14.085,9.777-14.085c5.258,0,7.971,2.285,8.546,7.412h4.93
			c-0.494-6.733-5.259-10.502-13.476-10.502c-9.613,0-15.036,5.747-15.036,17.113c0,12.355,5.422,17.175,14.625,17.175
			c8.052,0,13.146-4.633,13.887-11.615H231.685z M192.524,360.646c4.354,1.297,5.915,3.15,5.915,6.054
			c0,3.646-3.368,5.869-8.626,5.869c-5.588,0-8.381-2.472-8.381-7.29v-0.864h-4.931v1.049c0,7.414,4.438,10.194,13.394,10.194
			c9.203,0,13.475-4.14,13.475-9.761c0-3.584-2.219-6.673-8.135-8.341l-7.149-2.039c-4.93-1.42-5.915-3.213-5.915-5.497
			c0-3.275,2.217-5.561,7.97-5.561c4.519,0,7.148,1.792,7.148,6.054v0.927h4.931v-0.927c0-5.992-3.78-9.144-11.996-9.144
			c-7.396,0-12.982,2.719-12.982,9.453c0,3.274,2.219,5.993,8.38,7.784L192.524,360.646z M123.579,374.917h4.93v-22.057
			c0-5.065,3.944-8.401,8.874-8.401c4.437,0,6.82,2.038,6.82,5.93v24.528h4.93v-22.057c0-5.065,3.944-8.401,8.875-8.401
			c4.437,0,6.819,2.038,6.819,5.93v24.528h4.931v-25.084c0-5.868-4.026-8.464-10.107-8.464c-5.587,0-9.121,2.101-11.092,5.747
			h-0.166c-0.657-3.337-3.862-5.747-9.12-5.747c-4.847,0-8.792,1.668-11.092,5.314h-0.164v-4.572h-4.438V374.917z M87.936,366.885
			c0,6.178,4.519,8.772,11.175,8.772c4.438,0,8.71-1.668,11.175-5.312h0.164v4.572h4.437v-32.806h-4.929v22.055
			c0,5.066-3.945,8.402-9.532,8.402c-5.177,0-7.56-2.039-7.56-7.351v-23.106h-4.93V366.885z M74.042,363.302
			c0,5.868-4.108,9.267-10.107,9.267c-4.272,0-6.902-2.595-6.902-6.426c0-3.892,2.548-5.807,7.478-6.795l4.108-0.804
			c1.971-0.37,4.766-1.05,5.258-2.161h0.165V363.302z M58.102,351.872c0-4.755,2.547-7.412,8.38-7.412
			c4.438,0,7.56,1.481,7.56,5.684c0,3.83-0.739,4.448-4.19,5.188l-9.285,1.978c-6.163,1.298-8.792,4.758-8.792,9.082
			c0,5.684,3.451,9.267,11.092,9.267c4.848,0,9.286-1.235,11.257-5.561h0.164v1.112c0,3.397,2.465,4.077,6.327,4.077
			c0.658,0,1.397-0.123,2.302-0.369v-2.719h-1.397c-1.725,0-2.547-0.865-2.547-2.72v-19.398c0-5.188-3.287-8.711-12.326-8.711
			c-9.203,0-13.475,3.769-13.475,10.502H58.102z M12.178,374.917h16.104c11.093,0,17.748-4.634,17.748-12.357
			c0-5.744-3.698-9.946-10.928-10.996v-0.124c5.916-1.111,9.039-5.251,9.039-9.576c0-6.549-4.438-11.058-15.777-11.058H12.178
			V374.917z M17.437,353.541h9.778c9.121,0,13.557,3.089,13.557,9.02s-4.437,9.021-13.557,9.021h-9.778V353.541z M17.437,334.142
			h9.203c8.217,0,12.244,2.162,12.244,8.03c0,5.129-4.109,8.032-13.147,8.032h-8.299V334.142z"/>
	</g>
</g>
</svg>
